<svg width="48" height="48" viewBox="0 0 48 48" fill="none" xmlns="http://www.w3.org/2000/svg">
<g clip-path="url(#clip0_1021_11291)">
<path d="M30 6L34.6 10.6L28.82 16.34L31.66 19.18L37.4 13.4L42 18V6H30ZM6 18L10.6 13.4L16.34 19.18L19.18 16.34L13.4 10.6L18 6H6V18ZM18 42L13.4 37.4L19.18 31.66L16.34 28.82L10.6 34.6L6 30V42H18ZM42 30L37.4 34.6L31.66 28.82L28.82 31.66L34.6 37.4L30 42H42V30Z" fill="#777B7D"/>
</g>
<defs>
<clipPath id="clip0_1021_11291">
<rect width="48" height="48" fill="white"/>
</clipPath>
</defs>
</svg>
