<svg width="1440" height="498" viewBox="0 0 1440 498" fill="none" xmlns="http://www.w3.org/2000/svg">
<rect x="-3" width="1445.52" height="498" fill="white"/>
<circle cx="55.0176" cy="31.5" r="3.5" fill="#D9D9D9"/>
<circle cx="55.0176" cy="104.5" r="3.5" fill="#D9D9D9"/>
<circle cx="55.0176" cy="177.5" r="3.5" fill="#D9D9D9"/>
<circle cx="55.0176" cy="250.5" r="3.5" fill="#D9D9D9"/>
<circle cx="55.0176" cy="323.5" r="3.5" fill="#D9D9D9"/>
<circle cx="55.0176" cy="396.5" r="3.5" fill="#D9D9D9"/>
<circle cx="55.0176" cy="469.5" r="3.5" fill="#D9D9D9"/>
<circle cx="158.018" cy="31.5" r="3.5" fill="#D9D9D9"/>
<circle cx="158.018" cy="104.5" r="3.5" fill="#D9D9D9"/>
<circle cx="158.018" cy="177.5" r="3.5" fill="#D9D9D9"/>
<circle cx="158.018" cy="250.5" r="3.5" fill="#D9D9D9"/>
<circle cx="158.018" cy="323.5" r="3.5" fill="#D9D9D9"/>
<circle cx="158.018" cy="396.5" r="3.5" fill="#D9D9D9"/>
<circle cx="158.018" cy="469.5" r="3.5" fill="#D9D9D9"/>
<circle cx="261.018" cy="31.5" r="3.5" fill="#D9D9D9"/>
<circle cx="261.018" cy="104.5" r="3.5" fill="#D9D9D9"/>
<circle cx="261.018" cy="177.5" r="3.5" fill="#D9D9D9"/>
<circle cx="261.018" cy="250.5" r="3.5" fill="#D9D9D9"/>
<circle cx="261.018" cy="323.5" r="3.5" fill="#D9D9D9"/>
<circle cx="261.018" cy="396.5" r="3.5" fill="#D9D9D9"/>
<circle cx="261.018" cy="469.5" r="3.5" fill="#D9D9D9"/>
<circle cx="364.018" cy="31.5" r="3.5" fill="#D9D9D9"/>
<circle cx="364.018" cy="104.5" r="3.5" fill="#D9D9D9"/>
<circle cx="364.018" cy="177.5" r="3.5" fill="#D9D9D9"/>
<circle cx="364.018" cy="250.5" r="3.5" fill="#D9D9D9"/>
<circle cx="364.018" cy="323.5" r="3.5" fill="#D9D9D9"/>
<circle cx="364.018" cy="396.5" r="3.5" fill="#D9D9D9"/>
<circle cx="364.018" cy="469.5" r="3.5" fill="#D9D9D9"/>
<circle cx="467.018" cy="31.5" r="3.5" fill="#D9D9D9"/>
<circle cx="467.018" cy="104.5" r="3.5" fill="#D9D9D9"/>
<circle cx="467.018" cy="177.5" r="3.5" fill="#D9D9D9"/>
<circle cx="467.018" cy="250.5" r="3.5" fill="#D9D9D9"/>
<circle cx="467.018" cy="323.5" r="3.5" fill="#D9D9D9"/>
<circle cx="467.018" cy="396.5" r="3.5" fill="#D9D9D9"/>
<circle cx="467.018" cy="469.5" r="3.5" fill="#D9D9D9"/>
<circle cx="570.018" cy="31.5" r="3.5" fill="#D9D9D9"/>
<circle cx="570.018" cy="104.5" r="3.5" fill="#D9D9D9"/>
<circle cx="570.018" cy="177.5" r="3.5" fill="#D9D9D9"/>
<circle cx="570.018" cy="250.5" r="3.5" fill="#D9D9D9"/>
<circle cx="570.018" cy="323.5" r="3.5" fill="#D9D9D9"/>
<circle cx="570.018" cy="396.5" r="3.5" fill="#D9D9D9"/>
<circle cx="570.018" cy="469.5" r="3.5" fill="#D9D9D9"/>
<circle cx="673.018" cy="31.5" r="3.5" fill="#D9D9D9"/>
<circle cx="673.018" cy="104.5" r="3.5" fill="#D9D9D9"/>
<circle cx="673.018" cy="177.5" r="3.5" fill="#D9D9D9"/>
<circle cx="673.018" cy="250.5" r="3.5" fill="#D9D9D9"/>
<circle cx="673.018" cy="323.5" r="3.5" fill="#D9D9D9"/>
<circle cx="673.018" cy="396.5" r="3.5" fill="#D9D9D9"/>
<circle cx="673.018" cy="469.5" r="3.5" fill="#D9D9D9"/>
<circle cx="776.018" cy="31.5" r="3.5" fill="#D9D9D9"/>
<circle cx="776.018" cy="104.5" r="3.5" fill="#D9D9D9"/>
<circle cx="776.018" cy="177.5" r="3.5" fill="#D9D9D9"/>
<circle cx="776.018" cy="250.5" r="3.5" fill="#D9D9D9"/>
<circle cx="776.018" cy="323.5" r="3.5" fill="#D9D9D9"/>
<circle cx="776.018" cy="396.5" r="3.5" fill="#D9D9D9"/>
<circle cx="776.018" cy="469.5" r="3.5" fill="#D9D9D9"/>
<circle cx="879.018" cy="31.5" r="3.5" fill="#D9D9D9"/>
<circle cx="879.018" cy="104.5" r="3.5" fill="#D9D9D9"/>
<circle cx="879.018" cy="177.5" r="3.5" fill="#D9D9D9"/>
<circle cx="879.018" cy="250.5" r="3.5" fill="#D9D9D9"/>
<circle cx="879.018" cy="323.5" r="3.5" fill="#D9D9D9"/>
<circle cx="879.018" cy="396.5" r="3.5" fill="#D9D9D9"/>
<circle cx="879.018" cy="469.5" r="3.5" fill="#D9D9D9"/>
<circle cx="982.018" cy="31.5" r="3.5" fill="#D9D9D9"/>
<circle cx="982.018" cy="104.5" r="3.5" fill="#D9D9D9"/>
<circle cx="982.018" cy="177.5" r="3.5" fill="#D9D9D9"/>
<circle cx="982.018" cy="250.5" r="3.5" fill="#D9D9D9"/>
<circle cx="982.018" cy="323.5" r="3.5" fill="#D9D9D9"/>
<circle cx="982.018" cy="396.5" r="3.5" fill="#D9D9D9"/>
<circle cx="982.018" cy="469.5" r="3.5" fill="#D9D9D9"/>
<circle cx="1085.02" cy="31.5" r="3.5" fill="#D9D9D9"/>
<circle cx="1085.02" cy="104.5" r="3.5" fill="#D9D9D9"/>
<circle cx="1085.02" cy="177.5" r="3.5" fill="#D9D9D9"/>
<circle cx="1085.02" cy="250.5" r="3.5" fill="#D9D9D9"/>
<circle cx="1085.02" cy="323.5" r="3.5" fill="#D9D9D9"/>
<circle cx="1085.02" cy="396.5" r="3.5" fill="#D9D9D9"/>
<circle cx="1085.02" cy="469.5" r="3.5" fill="#D9D9D9"/>
<circle cx="1188.02" cy="31.5" r="3.5" fill="#D9D9D9"/>
<circle cx="1188.02" cy="104.5" r="3.5" fill="#D9D9D9"/>
<circle cx="1188.02" cy="177.5" r="3.5" fill="#D9D9D9"/>
<circle cx="1188.02" cy="250.5" r="3.5" fill="#D9D9D9"/>
<circle cx="1188.02" cy="323.5" r="3.5" fill="#D9D9D9"/>
<circle cx="1188.02" cy="396.5" r="3.5" fill="#D9D9D9"/>
<circle cx="1188.02" cy="469.5" r="3.5" fill="#D9D9D9"/>
<circle cx="1291.02" cy="31.5" r="3.5" fill="#D9D9D9"/>
<circle cx="1291.02" cy="104.5" r="3.5" fill="#D9D9D9"/>
<circle cx="1291.02" cy="177.5" r="3.5" fill="#D9D9D9"/>
<circle cx="1291.02" cy="250.5" r="3.5" fill="#D9D9D9"/>
<circle cx="1291.02" cy="323.5" r="3.5" fill="#D9D9D9"/>
<circle cx="1291.02" cy="396.5" r="3.5" fill="#D9D9D9"/>
<circle cx="1291.02" cy="469.5" r="3.5" fill="#D9D9D9"/>
<circle cx="1394.02" cy="31.5" r="3.5" fill="#D9D9D9"/>
<circle cx="1394.02" cy="104.5" r="3.5" fill="#D9D9D9"/>
<circle cx="1394.02" cy="177.5" r="3.5" fill="#D9D9D9"/>
<circle cx="1394.02" cy="250.5" r="3.5" fill="#D9D9D9"/>
<circle cx="1394.02" cy="323.5" r="3.5" fill="#D9D9D9"/>
<circle cx="1394.02" cy="396.5" r="3.5" fill="#D9D9D9"/>
<circle cx="1394.02" cy="469.5" r="3.5" fill="#D9D9D9"/>
</svg>
